<mxfile host="app.diagrams.net" agent="Mozilla/5.0 (Windows NT 10.0; Win64; x64; rv:138.0) Gecko/20100101 Firefox/138.0" version="26.3.0">
  <diagram name="Page-1" id="MuX00yw0iJNA23Uuz7hC">
    <mxGraphModel dx="1228" dy="568" grid="1" gridSize="10" guides="1" tooltips="1" connect="1" arrows="1" fold="1" page="1" pageScale="1" pageWidth="850" pageHeight="1100" math="0" shadow="0">
      <root>
        <mxCell id="0" />
        <mxCell id="1" parent="0" />
        <mxCell id="svoPkUTlZje4jlUMsaOp-1" value="" style="shape=umlLifeline;perimeter=lifelinePerimeter;whiteSpace=wrap;html=1;container=1;dropTarget=0;collapsible=0;recursiveResize=0;outlineConnect=0;portConstraint=eastwest;newEdgeStyle={&quot;curved&quot;:0,&quot;rounded&quot;:0};participant=umlActor;" vertex="1" parent="1">
          <mxGeometry x="150" y="790" width="20" height="920" as="geometry" />
        </mxCell>
        <mxCell id="svoPkUTlZje4jlUMsaOp-2" value="" style="html=1;points=[[0,0,0,0,5],[0,1,0,0,-5],[1,0,0,0,5],[1,1,0,0,-5]];perimeter=orthogonalPerimeter;outlineConnect=0;targetShapes=umlLifeline;portConstraint=eastwest;newEdgeStyle={&quot;curved&quot;:0,&quot;rounded&quot;:0};" vertex="1" parent="svoPkUTlZje4jlUMsaOp-1">
          <mxGeometry x="5" y="90" width="10" height="610" as="geometry" />
        </mxCell>
        <mxCell id="svoPkUTlZje4jlUMsaOp-3" value="User " style="text;html=1;align=center;verticalAlign=middle;resizable=0;points=[];autosize=1;strokeColor=none;fillColor=none;" vertex="1" parent="1">
          <mxGeometry x="135" y="758" width="50" height="30" as="geometry" />
        </mxCell>
        <mxCell id="svoPkUTlZje4jlUMsaOp-4" value="&lt;div&gt;Search&lt;/div&gt;&lt;div&gt;Page&lt;/div&gt;" style="shape=umlBoundary;whiteSpace=wrap;html=1;" vertex="1" parent="1">
          <mxGeometry x="260" y="758" width="100" height="80" as="geometry" />
        </mxCell>
        <mxCell id="svoPkUTlZje4jlUMsaOp-5" value="Bait results" style="ellipse;shape=umlEntity;whiteSpace=wrap;html=1;" vertex="1" parent="1">
          <mxGeometry x="420" y="758" width="80" height="80" as="geometry" />
        </mxCell>
        <mxCell id="svoPkUTlZje4jlUMsaOp-6" value="Results Page" style="shape=umlBoundary;whiteSpace=wrap;html=1;" vertex="1" parent="1">
          <mxGeometry x="740" y="758" width="100" height="80" as="geometry" />
        </mxCell>
        <mxCell id="svoPkUTlZje4jlUMsaOp-7" value="Sorting Page" style="shape=umlBoundary;whiteSpace=wrap;html=1;" vertex="1" parent="1">
          <mxGeometry x="560" y="758" width="100" height="80" as="geometry" />
        </mxCell>
        <mxCell id="svoPkUTlZje4jlUMsaOp-8" value="" style="html=1;verticalAlign=bottom;endArrow=none;dashed=1;labelBackgroundColor=none;fontFamily=Verdana;fontSize=12;elbow=vertical;startFill=0;entryX=0.595;entryY=1.022;entryDx=0;entryDy=0;entryPerimeter=0;" edge="1" parent="1" source="svoPkUTlZje4jlUMsaOp-10" target="svoPkUTlZje4jlUMsaOp-4">
          <mxGeometry relative="1" as="geometry">
            <mxPoint x="320" y="900" as="targetPoint" />
            <mxPoint x="320" y="1150" as="sourcePoint" />
          </mxGeometry>
        </mxCell>
        <mxCell id="svoPkUTlZje4jlUMsaOp-9" value="jButtonActionPrformed()" style="html=1;verticalAlign=bottom;endArrow=block;curved=0;rounded=0;entryX=0;entryY=0;entryDx=0;entryDy=5;entryPerimeter=0;exitX=1;exitY=0;exitDx=0;exitDy=5;exitPerimeter=0;" edge="1" parent="1" source="svoPkUTlZje4jlUMsaOp-2" target="svoPkUTlZje4jlUMsaOp-10">
          <mxGeometry width="80" relative="1" as="geometry">
            <mxPoint x="180" y="880" as="sourcePoint" />
            <mxPoint x="301" y="882" as="targetPoint" />
          </mxGeometry>
        </mxCell>
        <mxCell id="svoPkUTlZje4jlUMsaOp-11" value="" style="html=1;verticalAlign=bottom;endArrow=none;dashed=1;labelBackgroundColor=none;fontFamily=Verdana;fontSize=12;elbow=vertical;startFill=0;" edge="1" parent="1" target="svoPkUTlZje4jlUMsaOp-10">
          <mxGeometry relative="1" as="geometry">
            <mxPoint x="320" y="862" as="targetPoint" />
            <mxPoint x="320" y="1560" as="sourcePoint" />
          </mxGeometry>
        </mxCell>
        <mxCell id="svoPkUTlZje4jlUMsaOp-10" value="" style="html=1;points=[[0,0,0,0,5],[0,1,0,0,-5],[1,0,0,0,5],[1,1,0,0,-5]];perimeter=orthogonalPerimeter;outlineConnect=0;targetShapes=umlLifeline;portConstraint=eastwest;newEdgeStyle={&quot;curved&quot;:0,&quot;rounded&quot;:0};" vertex="1" parent="1">
          <mxGeometry x="310" y="880" width="20" height="590" as="geometry" />
        </mxCell>
        <mxCell id="svoPkUTlZje4jlUMsaOp-12" value="" style="html=1;verticalAlign=bottom;endArrow=none;dashed=1;labelBackgroundColor=none;fontFamily=Verdana;fontSize=12;elbow=vertical;startFill=0;entryX=0.595;entryY=1.022;entryDx=0;entryDy=0;entryPerimeter=0;" edge="1" parent="1" target="svoPkUTlZje4jlUMsaOp-13">
          <mxGeometry relative="1" as="geometry">
            <mxPoint x="330" y="872" as="targetPoint" />
            <mxPoint x="480" y="1400" as="sourcePoint" />
          </mxGeometry>
        </mxCell>
        <mxCell id="svoPkUTlZje4jlUMsaOp-13" value="" style="html=1;points=[[0,0,0,0,5],[0,1,0,0,-5],[1,0,0,0,5],[1,1,0,0,-5]];perimeter=orthogonalPerimeter;outlineConnect=0;targetShapes=umlLifeline;portConstraint=eastwest;newEdgeStyle={&quot;curved&quot;:0,&quot;rounded&quot;:0};" vertex="1" parent="1">
          <mxGeometry x="460" y="910" width="20" height="140" as="geometry" />
        </mxCell>
        <mxCell id="svoPkUTlZje4jlUMsaOp-14" value="" style="html=1;verticalAlign=bottom;endArrow=none;dashed=1;labelBackgroundColor=none;fontFamily=Verdana;fontSize=12;elbow=vertical;startFill=0;entryX=0.584;entryY=1.003;entryDx=0;entryDy=0;entryPerimeter=0;" edge="1" parent="1" source="svoPkUTlZje4jlUMsaOp-13" target="svoPkUTlZje4jlUMsaOp-5">
          <mxGeometry relative="1" as="geometry">
            <mxPoint x="552" y="890" as="targetPoint" />
            <mxPoint x="360" y="976" as="sourcePoint" />
          </mxGeometry>
        </mxCell>
        <mxCell id="svoPkUTlZje4jlUMsaOp-15" value="FetchBaitDetails()" style="html=1;verticalAlign=bottom;endArrow=block;curved=0;rounded=0;entryX=0;entryY=0;entryDx=0;entryDy=5;entryPerimeter=0;" edge="1" parent="1" source="svoPkUTlZje4jlUMsaOp-10" target="svoPkUTlZje4jlUMsaOp-13">
          <mxGeometry width="80" relative="1" as="geometry">
            <mxPoint x="330" y="930" as="sourcePoint" />
            <mxPoint x="475" y="930" as="targetPoint" />
            <mxPoint as="offset" />
          </mxGeometry>
        </mxCell>
        <mxCell id="svoPkUTlZje4jlUMsaOp-16" value="Bait Data" style="html=1;verticalAlign=bottom;endArrow=open;dashed=1;endSize=8;curved=0;rounded=0;" edge="1" parent="1" source="svoPkUTlZje4jlUMsaOp-13" target="svoPkUTlZje4jlUMsaOp-10">
          <mxGeometry x="0.0074" relative="1" as="geometry">
            <mxPoint x="430" y="990" as="sourcePoint" />
            <mxPoint x="280" y="990" as="targetPoint" />
            <mxPoint as="offset" />
          </mxGeometry>
        </mxCell>
        <mxCell id="svoPkUTlZje4jlUMsaOp-21" value="fetchUserChoice()" style="html=1;verticalAlign=bottom;endArrow=block;curved=0;rounded=0;" edge="1" parent="1">
          <mxGeometry width="80" relative="1" as="geometry">
            <mxPoint x="310" y="1030" as="sourcePoint" />
            <mxPoint x="159.66666666666652" y="1030" as="targetPoint" />
            <mxPoint as="offset" />
          </mxGeometry>
        </mxCell>
        <mxCell id="svoPkUTlZje4jlUMsaOp-22" value="User Choice" style="html=1;verticalAlign=bottom;endArrow=open;dashed=1;endSize=8;curved=0;rounded=0;" edge="1" parent="1">
          <mxGeometry x="0.0074" relative="1" as="geometry">
            <mxPoint x="159.66666666666652" y="1070" as="sourcePoint" />
            <mxPoint x="310" y="1070" as="targetPoint" />
            <mxPoint as="offset" />
          </mxGeometry>
        </mxCell>
        <mxCell id="svoPkUTlZje4jlUMsaOp-31" value="" style="html=1;verticalAlign=bottom;endArrow=none;dashed=1;labelBackgroundColor=none;fontFamily=Verdana;fontSize=12;elbow=vertical;startFill=0;" edge="1" parent="1" source="svoPkUTlZje4jlUMsaOp-29">
          <mxGeometry relative="1" as="geometry">
            <mxPoint x="620" y="840" as="targetPoint" />
            <mxPoint x="620" y="952" as="sourcePoint" />
          </mxGeometry>
        </mxCell>
        <mxCell id="svoPkUTlZje4jlUMsaOp-29" value="" style="html=1;points=[[0,0,0,0,5],[0,1,0,0,-5],[1,0,0,0,5],[1,1,0,0,-5]];perimeter=orthogonalPerimeter;outlineConnect=0;targetShapes=umlLifeline;portConstraint=eastwest;newEdgeStyle={&quot;curved&quot;:0,&quot;rounded&quot;:0};" vertex="1" parent="1">
          <mxGeometry x="610" y="970" width="20" height="290" as="geometry" />
        </mxCell>
        <mxCell id="svoPkUTlZje4jlUMsaOp-32" value="" style="html=1;verticalAlign=bottom;endArrow=none;dashed=1;labelBackgroundColor=none;fontFamily=Verdana;fontSize=12;elbow=vertical;startFill=0;" edge="1" parent="1" target="svoPkUTlZje4jlUMsaOp-29">
          <mxGeometry relative="1" as="geometry">
            <mxPoint x="600" y="850" as="targetPoint" />
            <mxPoint x="680" y="1340" as="sourcePoint" />
          </mxGeometry>
        </mxCell>
        <mxCell id="svoPkUTlZje4jlUMsaOp-33" value="CardLayout.show()" style="html=1;verticalAlign=bottom;endArrow=block;curved=0;rounded=0;" edge="1" parent="1">
          <mxGeometry width="80" relative="1" as="geometry">
            <mxPoint x="330" y="1120" as="sourcePoint" />
            <mxPoint x="610" y="1120" as="targetPoint" />
            <mxPoint as="offset" />
          </mxGeometry>
        </mxCell>
      </root>
    </mxGraphModel>
  </diagram>
</mxfile>
